# xmcd
#
# Track frame offsets: 
#        150
#        14912
#        27664
#        40157
#        51639
#        63194
#        76814
#        88020
#        102318
#        114667
#        127202
#        141130
#        154723
#        167862
#        180466
#        193079
#        202546
#        213552
#        224514
#        238565
#        251707
#
# Disc length: 3537 seconds
#
# Revision: 0
# Processed by: cddbd v1.5.2PL0 Copyright (c) Steve Scherf et al.
# Submitted via: ExactAudioCopy v1.0b3
#
DISCID=390dcf15
DTITLE=Blues Various - Best of Blues
DYEAR=1900
DGENRE=Blues
TTITLE0=B. B. King - B.B. Boogie
TTITLE1=B. B. King - Got The Blues
TTITLE2=B. B. King - Mistreated Woman
TTITLE3=B. B. King - She's A Mean Woman
TTITLE4=B. B. King - Hard Working Woman
TTITLE5=B. B. King - Three O'Clock Blues
TTITLE6=B. B. King - B.B. Blues
TTITLE7=Little Walter - Blues With A Feeling
TTITLE8=Little Walter - Juke
TTITLE9=Little Walter - Tell Me Mama
TTITLE10=Little Walter - You Better Watch Yourself
TTITLE11=Little Walter - Can't Hold On Much Longer
TTITLE12=Little Walter - Tonight With A Fool
TTITLE13=Little Walter - Red Headed Woman
TTITLE14=Lightnin' Slim - Rock Me Mama
TTITLE15=Lightnin' Slim - Bugger Bugger Boy
TTITLE16=Lightnin' Slim - I'm A Rollin' Stone
TTITLE17=Lightnin' Slim - Hoodoo Man
TTITLE18=Lightnin' Slim - Nothin' But The Devil
TTITLE19=Lightnin' Slim - Tom Cat Blues
TTITLE20=Lightnin' Slim - Wintertime Blues
EXTD=
EXTT0=
EXTT1=
EXTT2=
EXTT3=
EXTT4=
EXTT5=
EXTT6=
EXTT7=
EXTT8=
EXTT9=
EXTT10=
EXTT11=
EXTT12=
EXTT13=
EXTT14=
EXTT15=
EXTT16=
EXTT17=
EXTT18=
EXTT19=
EXTT20=
PLAYORDER=
